<?xml version="1.0" encoding="iso-8859-1"?>
<!-- Generator: Adobe Illustrator 19.0.0, SVG Export Plug-In . SVG Version: 6.00 Build 0)  -->
<svg version="1.1" id="Capa_1" xmlns="http://www.w3.org/2000/svg" xmlns:xlink="http://www.w3.org/1999/xlink" x="0px" y="0px"
	 viewBox="0 0 490.1 490.1" style="enable-background:new 0 0 490.1 490.1;" xml:space="preserve">
<g>
	<g>
		<path d="M167.9,333.6h-16.7c-11.5,0-20.9,9.4-20.9,20.9s9.4,20.9,20.9,20.9h16.7c11.5,0,20.9-9.4,20.9-20.9
			C188.7,343,179.3,333.6,167.9,333.6z"/>
		<path d="M338.8,333.6h-16.7c-11.5,0-20.9,9.4-20.9,20.9s9.4,20.9,20.9,20.9h16.7c11.5,0,20.9-9.4,20.9-20.9
			C359.7,343,350.3,333.6,338.8,333.6z"/>
		<path d="M469.1,73h-34.4V41.7C434.7,18.8,416,0,393,0H97C74,0,55.3,18.8,55.3,41.7V74H20.9C9.4,74,0,83.4,0,94.9v49
			c0,11.5,9.4,20.9,20.9,20.9c10.4,0,19.8-9.4,19.8-19.8v-29.2h14.6v286.7c0,22.9,18.8,41.7,41.7,41.7h22.9v25
			c0,11.5,9.4,20.9,20.9,20.9s19.8-9.4,20.9-20.9v-25h166.8v25c0,11.5,9.4,20.9,20.9,20.9s20.9-9.4,20.9-20.9v-25H393
			c22.9,0,41.7-18.8,41.7-41.7V114.7h13.6v29.2c0,11.5,9.4,20.9,20.9,20.9s20.9-9.4,20.9-20.9v-50C490,82.4,480.6,73,469.1,73z
			 M394.1,40.7v210.6H96.4L97,40.7H394.1z M394.1,403.5H95.9L96.2,293h297.9V403.5z"/>
	</g>
</g>
<g>
</g>
<g>
</g>
<g>
</g>
<g>
</g>
<g>
</g>
<g>
</g>
<g>
</g>
<g>
</g>
<g>
</g>
<g>
</g>
<g>
</g>
<g>
</g>
<g>
</g>
<g>
</g>
<g>
</g>
</svg>
