<?xml version="1.0" encoding="iso-8859-1"?>
<!-- Generator: Adobe Illustrator 18.0.0, SVG Export Plug-In . SVG Version: 6.00 Build 0)  -->
<!DOCTYPE svg PUBLIC "-//W3C//DTD SVG 1.1//EN" "http://www.w3.org/Graphics/SVG/1.1/DTD/svg11.dtd">
<svg version="1.1" id="Capa_1" xmlns="http://www.w3.org/2000/svg" xmlns:xlink="http://www.w3.org/1999/xlink" x="0px" y="0px"
	 viewBox="0 0 365.352 365.352" style="enable-background:new 0 0 365.352 365.352;" xml:space="preserve">
<g>
	<path style="fill:#231F20;" d="M363.155,169.453l-14.143-14.143c-1.407-1.407-3.314-2.197-5.304-2.197
		c-1.989,0-3.897,0.79-5.304,2.197l-45.125,45.125v-57.503c0-50.023-40.697-90.721-90.721-90.721H162.3c-4.143,0-7.5,3.358-7.5,7.5
		v20c0,4.142,3.357,7.5,7.5,7.5h40.26c30.725,0,55.721,24.996,55.721,55.721v57.503l-45.125-45.125
		c-1.407-1.407-3.314-2.197-5.304-2.197c-1.989,0-3.896,0.79-5.304,2.197l-14.143,14.143c-1.406,1.406-2.196,3.314-2.196,5.303
		c0,1.989,0.79,3.897,2.196,5.303l82.071,82.071c1.465,1.464,3.385,2.197,5.304,2.197c1.919,0,3.839-0.732,5.304-2.197
		l82.071-82.071c1.405-1.406,2.196-3.314,2.196-5.303C365.352,172.767,364.561,170.859,363.155,169.453z"/>
	<path style="fill:#231F20;" d="M203.052,278.14h-40.26c-30.725,0-55.721-24.996-55.721-55.721v-57.503l45.125,45.126
		c1.407,1.407,3.314,2.197,5.304,2.197c1.989,0,3.896-0.79,5.304-2.197l14.143-14.143c1.406-1.406,2.196-3.314,2.196-5.303
		c0-1.989-0.79-3.897-2.196-5.303l-82.071-82.071c-2.93-2.929-7.678-2.929-10.607,0L2.196,185.292C0.79,186.699,0,188.607,0,190.596
		c0,1.989,0.79,3.897,2.196,5.303l14.143,14.143c1.407,1.407,3.314,2.197,5.304,2.197s3.897-0.79,5.304-2.197l45.125-45.126v57.503
		c0,50.023,40.697,90.721,90.721,90.721h40.26c4.143,0,7.5-3.358,7.5-7.5v-20C210.552,281.498,207.194,278.14,203.052,278.14z"/>
</g>
<g>
</g>
<g>
</g>
<g>
</g>
<g>
</g>
<g>
</g>
<g>
</g>
<g>
</g>
<g>
</g>
<g>
</g>
<g>
</g>
<g>
</g>
<g>
</g>
<g>
</g>
<g>
</g>
<g>
</g>
</svg>
